<?xml version="1.0" standalone="no"?><!DOCTYPE svg PUBLIC "-//W3C//DTD SVG 1.1//EN" "http://www.w3.org/Graphics/SVG/1.1/DTD/svg11.dtd"><svg t="1656742412249" class="icon" viewBox="0 0 1103 1024" version="1.1" xmlns="http://www.w3.org/2000/svg" p-id="1902" width="1077.1484375" height="1000" xmlns:xlink="http://www.w3.org/1999/xlink"><defs><style type="text/css"></style></defs><path d="M48.9 783.8h214.8c11.1 0 20.1 9 20.1 20.1v172c0 11.1-9 20.1-20.1 20.1H48.9c-11.1 0-20.1-9-20.1-20.1v-172c0-11.1 9-20.1 20.1-20.1z" p-id="1903"></path><path d="M249.6 222.4m-77.2 0a77.2 77.2 0 1 0 154.4 0 77.2 77.2 0 1 0-154.4 0Z" p-id="1904"></path><path d="M121.2 369.7L46.5 654c-5.2 49.8 17 94.4 60.3 94.4H318c9.3 0 16.8 7.5 16.8 16.8v183c0 26.4 21.4 47.8 47.8 47.8s47.8-21.4 47.8-47.8V701.4c0-24-19.5-43.5-43.5-43.5H228.6c-9.8 0-17-9.4-14.3-18.9L260 474.8c2.9-10.5 16.2-13.7 23.6-5.8l50.5 54.1c4.6 4.9 11 7.7 17.8 7.7h191.3c26.2-3.6 33.7-43.6 10.5-61.6C679.2 285.7 819.3 146.5 977 60.5c9.4-5.1 11.9-17.5 5.3-25.9-5.5-7-15.4-8.6-22.9-3.8-186.3 118.6-341 257.5-438.5 432.9H368.2L233.6 330c-38.2-24.1-98.5-4-112.4 39.7zM536.8 849.3c29.5-0.7 49.7 10.4 63.9 9.8 52.1 0 61.9-25.9 101.2-23.6 49 0.8 76.2 24.1 121.9 23.6 53.6-1.2 58-23.7 113-23.6 35.5-0.1 62.1 23.9 101.2 23.6 25.7 0.7 43.7-11 65.8-11.8v42.6c-15.3 0-30.1 14.1-65.8 14.5-31.3-0.5-62.1-27-105.2-23.6-53.1 4.7-53.9 23.9-112.5 23.6-36.2-1.2-68.3-20-118.4-20.6-37.8 0.4-62.8 18.6-100.2 20.6-30.7 2.3-43.4-9.9-64.9-8.8v-46.3zM536.8 929.6c29.5-0.7 49.7 10.4 63.9 9.8 52.1 0 61.9-25.9 101.2-23.6 49 0.8 76.2 24.1 121.9 23.6 53.6-1.2 58-23.7 113-23.6 35.5-0.1 62.1 23.9 101.2 23.6 25.7 0.7 43.7-11 65.8-11.8v42.6c-15.3 0-30.1 14.1-65.8 14.5-31.3-0.5-62.1-27-105.2-23.6-53.1 4.7-53.9 23.9-112.5 23.6-36.2-1.2-68.3-20-118.4-20.6-37.8 0.4-62.8 18.6-100.2 20.6-30.7 2.3-43.4-9.9-64.9-8.8v-46.3z" p-id="1905"></path><path d="M921 93.8v753.9h24.3V75.2z" p-id="1906"></path></svg>